<svg xmlns="http://www.w3.org/2000/svg" xmlns:xlink="http://www.w3.org/1999/xlink" version="1.1" x="0px" y="0px" viewBox="0 0 100 125" enable-background="new 0 0 100 100" xml:space="preserve"><g><g><path fill="#000000" d="M45.333,36.206l-17.26-7.05c-0.666-0.271-1.441-0.415-2.246-0.415c-1.411,0-2.797,0.424-3.802,1.163    L8.261,40.014c-1.671,1.227-2.665,3.694-2.31,5.738l2.5,14.4c0.319,1.847,1.716,3.893,3.32,4.863l15.576,9.424    c0.754,0.456,1.64,0.698,2.561,0.698c1.436,0,2.843-0.605,3.765-1.622l11.119-12.25c1.137-1.252,2.09-3.382,2.266-5.063    l1.529-14.558C48.821,39.398,47.422,37.06,45.333,36.206z M45.085,41.277l-1.529,14.557c-0.098,0.936-0.739,2.368-1.373,3.065    L31.066,71.15c-0.262,0.287-0.706,0.467-1.159,0.467c-0.278,0-0.535-0.067-0.74-0.19l-15.576-9.424    c-0.73-0.442-1.527-1.61-1.674-2.452L9.42,45.149c-0.13-0.751,0.31-1.848,0.925-2.299l13.764-10.109    c0.396-0.291,1.07-0.479,1.718-0.479c0.348,0,0.672,0.055,0.915,0.154L44,39.465C44.64,39.726,45.156,40.589,45.085,41.277z"/><path fill="#000000" d="M31.779,56.305c0.047-0.386,0.291-0.941,0.541-1.237L43.444,41.92c0.25-0.297,0.213-0.332-0.08-0.081    L30.816,52.59c-0.293,0.251-0.825,0.335-1.182,0.181l-17.528-7.473c-0.356-0.152-0.377-0.111-0.047,0.09l16.158,9.861    c0.33,0.201,0.626,0.683,0.656,1.068l1.065,13.578c0.029,0.387,0.094,0.388,0.142,0.004L31.779,56.305z"/></g><path fill="#000000" d="M58.193,38.564l0.738,9.407l1.092-0.801l1.074-8.619c0.049-0.384,0.293-0.94,0.545-1.236l11.121-13.149   c0.25-0.295,0.215-0.332-0.078-0.079L60.137,34.835c-0.293,0.253-0.826,0.335-1.182,0.183l-17.529-7.474   c-0.355-0.153-0.377-0.111-0.047,0.09l16.16,9.861C57.869,37.698,58.164,38.178,58.193,38.564z"/><g><path fill="#000000" d="M90.705,50.55L73.445,43.5c-0.666-0.272-1.441-0.415-2.246-0.415c-1.41,0-2.797,0.423-3.803,1.161    l-13.762,10.11c-1.672,1.228-2.666,3.694-2.311,5.739l2.5,14.399c0.318,1.847,1.715,3.892,3.32,4.862l15.574,9.425    c0.754,0.457,1.641,0.699,2.562,0.699c1.436,0,2.842-0.606,3.764-1.622l11.119-12.251c1.137-1.253,2.09-3.382,2.266-5.063    l1.527-14.558C94.193,53.741,92.795,51.403,90.705,50.55z M90.457,55.62l-1.529,14.557c-0.096,0.937-0.738,2.368-1.371,3.065    L76.438,85.494c-0.26,0.287-0.703,0.466-1.156,0.466c-0.279,0-0.535-0.065-0.74-0.189l-15.576-9.425    c-0.73-0.442-1.527-1.61-1.674-2.451l-2.498-14.4c-0.131-0.753,0.309-1.85,0.926-2.301L69.48,47.084    c0.396-0.291,1.07-0.479,1.719-0.479c0.348,0,0.672,0.055,0.914,0.153l17.26,7.05C90.014,54.069,90.529,54.933,90.457,55.62z"/><path fill="#000000" d="M77.152,70.647c0.047-0.384,0.291-0.94,0.541-1.236l11.123-13.149c0.25-0.294,0.213-0.331-0.08-0.079    L76.189,66.934c-0.295,0.253-0.826,0.334-1.184,0.183L57.479,59.64c-0.355-0.15-0.377-0.111-0.047,0.092l16.158,9.861    c0.332,0.202,0.625,0.683,0.656,1.068l1.066,13.578c0.029,0.388,0.094,0.389,0.141,0.004L77.152,70.647z"/></g><g><path fill="#000000" d="M49.47,52.33l1.966,1.19c0.172-0.153,0.348-0.299,0.531-0.433l2.508-1.844l-4.6-2.783L49.47,52.33z"/><path fill="#000000" d="M74.652,18.453l-17.26-7.05c-0.664-0.271-1.441-0.415-2.246-0.415c-1.41,0-2.797,0.423-3.803,1.162    L37.582,22.26c-1.671,1.227-2.665,3.694-2.311,5.738l0.407,2.342l3.844,1.57l-0.783-4.515c-0.13-0.752,0.311-1.848,0.926-2.3    l13.762-10.109c0.396-0.291,1.07-0.479,1.719-0.479c0.348,0,0.674,0.056,0.916,0.154l17.258,7.05    c0.641,0.261,1.156,1.124,1.086,1.812L72.877,38.08c-0.098,0.936-0.738,2.368-1.371,3.065l-0.117,0.128    c1.1,0.021,2.176,0.233,3.121,0.619l0.588,0.241c0.666-1.152,1.158-2.526,1.279-3.686l1.529-14.558    C78.141,21.644,76.744,19.307,74.652,18.453z"/></g></g><text x="0" y="115" fill="#000000" font-size="5px" font-weight="bold" font-family="'Helvetica Neue', Helvetica, Arial-Unicode, Arial, Sans-serif">Created by Jonathan Gibson</text><text x="0" y="120" fill="#000000" font-size="5px" font-weight="bold" font-family="'Helvetica Neue', Helvetica, Arial-Unicode, Arial, Sans-serif">from the Noun Project</text></svg>