<svg xmlns="http://www.w3.org/2000/svg" xmlns:xlink="http://www.w3.org/1999/xlink" version="1.1" x="0px" y="0px" viewBox="0 0 32 40" enable-background="new 0 0 32 32" xml:space="preserve"><path d="M8,2H7H2v22v1v5h22h1h5V8V7V2H8z M24,12h-5h-6V8h11V12z M24,24h-4v-5v-6h4V24z M8,20h5h6v4H8V20z M13,19v-6h6v6H13z M12,13  v6H8V8h4V13z M3,3h4v4v1v11v1v4H3V3z M24,29H3v-4h4h1h11h1h4V29z M29,29h-4v-4v-1V13v-1V8h4V29z M25,7h-1H13h-1H8V3h21v4H25z"/><text x="0" y="47" fill="#000000" font-size="5px" font-weight="bold" font-family="'Helvetica Neue', Helvetica, Arial-Unicode, Arial, Sans-serif">Created by Musket</text><text x="0" y="52" fill="#000000" font-size="5px" font-weight="bold" font-family="'Helvetica Neue', Helvetica, Arial-Unicode, Arial, Sans-serif">from the Noun Project</text></svg>