<svg xmlns="http://www.w3.org/2000/svg" xmlns:xlink="http://www.w3.org/1999/xlink" version="1.1" x="0px" y="0px" viewBox="0 0 99.21 124.01249999999999" enable-background="new 0 0 99.21 99.21" xml:space="preserve"><g><path fill="#000000" d="M65.993,12.045L1.104,49.508v0.135v18.744l32.112,18.777l64.888-37.464V30.957L65.993,12.045z    M31.349,83.912L2.971,67.316V52.897l28.378,16.604V83.912z M4.809,49.525l61.174-35.32l28.419,16.736L33.227,66.272L4.809,49.525z    M96.24,48.623l-61.157,35.31V69.51L96.24,34.19V48.623z"/><g><g><polygon points="74.446,54.7 74.786,54.505 74.789,54.88 74.449,55.076    "/></g><g><path d="M72.924,58.594c0.579-0.184,0.399-0.13,0.682,0.171C72.916,58.983,73.094,59.01,72.924,58.594z"/></g><g><path d="M73.13,56.919c-0.036,0.021-0.098,0.136-0.208,0.546l-0.343,0.197c0.044-0.494,0.057-0.599,0.072-0.607     c0.005-0.003,0.011,0.007,0.021,0.016c0.008,0.008,0.019,0.016,0.033,0.006c0.036-0.021,0.099-0.135,0.214-0.55l0.34-0.197     c-0.047,0.497-0.06,0.603-0.075,0.611c-0.005,0.004-0.01-0.007-0.018-0.015C73.158,56.917,73.146,56.909,73.13,56.919z"/></g><g><polygon points="72.067,56.827 72.099,56.396 72.44,56.575    "/></g><g><path d="M72.07,58.333c0.139-0.61-0.046-0.242,0.34-0.762v0.565L72.07,58.333z"/></g><g><path d="M67.305,61.838c-0.483,0.136-0.249,0.183-0.512-0.081l0.509-0.294L67.305,61.838z"/></g><g><path d="M64.239,63.232c0.357-0.142,0.309,0.13,0.342,0.554l-0.527,0.22l-0.48,0.397l-0.016-0.777     c0.504-0.145,0.275-0.084,0.682-0.019V63.232z"/></g><g><polygon points="62.501,63.256 62.838,62.684 62.874,63.078    "/></g><g><polygon points="62.194,64.601 62.194,64.223 62.706,63.927 62.706,64.305    "/></g><g><polygon points="61.678,62.072 61.506,61.419 61.845,61.224 61.848,61.975    "/></g><g><path d="M61.174,64.624c-0.003-0.254,0.188-0.389,0.339-0.572l0.003,0.753C61.385,64.778,61.174,64.898,61.174,64.624z"/></g><g><path d="M60.993,61.715c0.319-0.126,0.271,0.078,0.343,0.368C60.973,61.998,61.114,62.195,60.993,61.715z"/></g><g><path d="M59.121,62.985c0.689-0.316,0.453-0.169,0.854,0.257l-0.515,0.121l0.005,0.551l-0.17,0.098l-0.002-0.563     C59.294,63.086,59.237,63.147,59.121,62.985z"/></g><g><polygon points="58.628,65.547 58.414,65.1 58.113,65.465 58.103,64.889 58.754,64.716 58.949,65.161    "/></g><g><path d="M59.299,65.142l-0.17,1.04l0.342-0.197l0.003,0.375c-0.389,0.109-0.682,0.211-0.684-0.36     C58.787,65.479,58.921,65.473,59.299,65.142z"/></g><g><polygon points="58.381,67.707 58.466,68.275 58.787,67.87 58.636,68.542 58.126,68.607    "/></g><g><path d="M57.301,69.08c-0.551,0.206-0.412,0.278-0.512-0.27L57.301,69.08z"/></g><g><polygon points="56.912,65.956 56.912,66.331 56.572,66.151    "/></g><g><path d="M56.57,64.834v0.751l-0.852,0.491C55.878,65.331,55.876,65.299,56.57,64.834z"/></g><g><path d="M55.21,66.938v-0.378l0.512-0.296C55.457,66.82,55.709,66.519,55.21,66.938z"/></g><g><path d="M55.714,64.199l0.003,0.188l-1.525,1.111c0.231-0.92,0.018-0.074,0.501-1.088C55.027,64.415,55.194,64.5,55.714,64.199z"/></g><g><path d="M55.358,65.901l-0.478,0.062c0.074-0.304,0.028-0.367,0.033-0.371c0.005-0.002,0.052,0.041,0.26,0.011l0.339-0.572     L55.358,65.901z"/></g><g><path d="M54.363,68.743c0.319-0.123,0.271,0.079,0.343,0.369l-0.343,0.197V68.743z"/></g><g><polygon points="54.333,70.419 54.675,69.847 54.711,70.239    "/></g><g><polygon points="54.22,65.966 54.559,66.146 54.187,66.398    "/></g><g><path d="M53.502,65.29l-0.003-0.566l0.513-0.296C53.875,65.073,54.014,64.842,53.502,65.29z"/></g><g><path d="M53.507,67.543l-0.002-0.751l0.512-0.296v0.375l-0.34,0.198C53.842,67.434,54.001,67.097,53.507,67.543z"/></g><g><polygon points="53.003,70.284 53.036,69.85 53.379,70.028    "/></g><g><polygon points="52.494,70.39 52.491,70.014 52.831,69.818 52.833,70.194    "/></g><g><path d="M52.003,69.456l0.306-0.296l-0.255,0.954l0.137,0.628l-0.537,0.098c0.051-0.175,0.087-0.286,0.11-0.353     c0.021-0.049,0.033-0.088,0.03-0.086c0,0.001-0.01,0.024-0.03,0.086c-0.019,0.041-0.041,0.082-0.062,0.095     c-0.034,0.019-0.064-0.03-0.064-0.265c0-0.024,0.167-0.468,0.172-0.476l-0.342,0.198l-0.34,0.195l0.168-0.661     c-0.268-0.062-0.339,0.162-0.342-0.368c0-0.025,0.164-0.468,0.17-0.476l0.676-0.177l0.008,0.35l0.195,0.253l-0.368,0.41     L52.003,69.456z"/></g><g><path d="M50.092,72.238l0.523-0.415l0.005,0.4l-0.511,0.295c-0.486,0.28-0.311,0.121-0.512-0.082L50.092,72.238z"/></g><g><path d="M48.904,68.132c0.514-0.146,0.374-0.219,0.512,0.269l-0.51,0.106L48.904,68.132z"/></g><g><path d="M49.954,69.193c-0.013-0.018-0.017-0.041,0.004-0.051c0.012-0.008,0.031-0.011,0.061-0.008     c0.006,0.049-0.003,0.071-0.016,0.079C49.987,69.222,49.966,69.212,49.954,69.193z"/></g><g><path d="M50.783,69.307c-0.377,1.095,0.092,0.43-0.508,1.044l0.205-0.858L50.102,69.7l-0.168,0.474l0.352,0.542l0.504-0.463     c-0.18,0.644-0.373,1.087-1.022,1.522l-0.001-0.378l-0.681,0.394v-0.375l-0.339,0.195l-0.001-0.376l0.339-0.195l-0.366-0.33     l0.195-0.323l-0.002-0.378l0.197,0.255c1.056-0.625,0.325-0.307,1.166-1.042c-0.124-0.057-0.203-0.079-0.254-0.087     c-0.005-0.055-0.031-0.142-0.089-0.278C50.615,68.664,50.486,68.856,50.783,69.307z"/></g><g><path d="M50.787,70.999c0.321-0.126,0.271,0.076,0.345,0.365l-0.342,0.198L50.787,70.999z"/></g><g><path d="M49.261,73.761c0.263-0.553,0.011-0.252,0.51-0.671l-0.303,0.592l-0.036,0.357l0.001,0.378l-0.33,0.394l-0.18-0.479     L48.719,73.9L49.261,73.761z"/></g><g><path d="M48.063,71.816l0.167-0.849l0.339-0.195c-0.014,0.937-0.007,0.925-0.849,1.43c0.083-0.323,0.04-0.398,0.052-0.406     C47.783,71.791,47.837,71.84,48.063,71.816z"/></g><g><path d="M47.86,71.544l-0.479,0.479c-0.175,0.32-0.288,0.553-0.511,0.859l0.16-0.661L46.7,72.416l-0.002-0.751l0.512-0.108     l0.331-0.407l0.103,0.372l0.076-0.445l0.342-0.198L47.86,71.544z"/></g><g><path d="M44.153,76.146c0.139-0.61-0.047-0.241,0.338-0.759l0.001,0.562L44.153,76.146z"/></g><g><path d="M43.47,75.788c0.473-0.259,0.313-0.119,0.509,0.082C43.499,76.006,43.732,76.053,43.47,75.788z"/></g><g><path d="M43.137,75.374c0.439-0.688,0.171-0.288,0.498-1.001l0.682-0.769l0.001,0.562l-0.512,0.296l0.203,0.435l0.263-0.548     l0.047,0.571l-0.511,0.296L43.137,75.374z"/></g><g><path d="M45.512,74.985c0.154,0.003,0.205,0.014,0.248-0.012c0.048-0.027,0.09-0.102,0.264-0.284l0.001,0.563     C45.512,75.398,45.651,75.472,45.512,74.985z"/></g><g><path d="M45.511,74.422c0.001,0.36-0.053,0.364-0.168,0.661l-0.682,0.018l0.681-0.393l-0.186-0.26l0.306-0.597L45.511,74.422z"/></g><g><polygon points="44.661,75.101 44.463,75.056 44.319,74.921 44.658,74.726    "/></g><g><path d="M43.802,72.771l-0.671,0.157l-0.01,0.612l-0.34,0.195V73.36l-0.499,0.512l-0.013-0.404l-0.339,0.195l-0.499,0.512     l-0.014-0.403l0.339-0.197l-0.185-0.258c0.5-0.17,0.271-0.197,0.527,0.062c0.338-0.509,0.188-0.49-0.001-0.751     c-0.365-0.084-0.221,0.113-0.345-0.366l0.342-0.009l0.339-0.197l0.332-0.396l0.18,0.103l0.332-0.396l0.005-0.742     c0.224,0.053,0.341,0.15,0.515,0.271l-0.003-0.565l0.499-0.511l-0.19-0.408c0.478,0.042,0.38-0.139,0.542,0.426     c-0.464,0.454-0.35,0.193-0.507,1.048l0.498-0.512l0.012,0.405l-0.365,0.313l-0.306,0.057l-0.18,0.311l0.509-0.08l0.005,0.348     l-0.512,0.483L43.802,72.771z"/></g><g><path d="M46.188,72.712l0.293-0.579l0.049,0.757l-0.2,0.668l-0.31,0.193l-0.003-0.754l-0.491-0.119l-0.519,0.549l-0.009,0.535     c-0.23-0.157-0.382-0.309-0.683-0.357l0.141-0.301l0.359,0.025c0.542-0.636,0.542-0.703,1.37-1.181L46.188,72.712z"/></g><g><path d="M49.758,68.767l-0.001-0.751l-0.197-0.446l0.535-0.313l-0.168,0.662c0.406,0.065,0.179,0.123,0.683-0.018     c-0.221,0.46-0.165,0.485-0.286,0.555c-0.031,0.019-0.077,0.042-0.144,0.076c-0.07,0.037-0.166,0.086-0.294,0.161     C49.846,68.715,49.805,68.738,49.758,68.767z"/></g><g><path d="M49.187,69.502c-0.238,0.139-0.447,0.222-0.449,0.041l-0.172-0.087l0.001,0.563l-0.512,0.473l0.002-0.367l-0.194,0.48     l-0.475,0.06l0.171-0.433l-0.185-0.09l-0.341,0.386c-0.36,0.5-0.221,0.142-0.338,0.759l-0.51,0.296l-0.165-0.474l-0.52,0.304     c-0.262-0.281-0.325-0.191-0.342-0.931l0.34-0.197l0.001,0.563c0.931-0.166-0.258,0.393,0.853-0.116l-0.002-0.562l-0.339,0.196     c0.082-0.324,0.04-0.398,0.051-0.406c0.01-0.005,0.063,0.044,0.288,0.021l-0.001-0.375c0.309-0.012,0.13,0.119,0.194,0.081     c0.031-0.019,0.113-0.069,0.319-0.188c0.023-0.015,0.337-0.381,0.339-0.386l-0.169,0.475l0.342-0.01l0.201-0.668l0.165,0.26     l0.656-0.368v0.375l0.194-0.478l0.316-0.193l-0.184,0.472l0.355-0.193l0.001,0.375l0.339-0.195     c-0.164-0.364-0.323-0.029,0.171-0.476l0.142,0.68c-0.075,0.043-0.17,0.104-0.273,0.169     C49.37,69.392,49.277,69.451,49.187,69.502z"/></g><g><path d="M47.384,73.527c0.476-0.26,0.315-0.118,0.512,0.082l-0.509,0.293L47.384,73.527z"/></g><g><polygon points="44.65,71.904 44.65,71.528 44.993,71.331 44.993,71.706    "/></g><g><polygon points="41.076,73.592 41.416,73.396 41.417,73.771 41.077,73.967    "/></g><g><polygon points="41.424,76.405 41.423,76.027 41.763,75.831 41.764,76.209    "/></g><g><path d="M40.742,76.42v-0.375l0.512-0.296C40.988,76.302,41.24,76.001,40.742,76.42z"/></g><g><path d="M39.381,77.585c0.297-0.668,0.085-0.44,0.679-0.959l0.002,0.754L39.381,77.585z"/></g><g><polygon points="39.512,74.507 39.705,74.952 39.216,75.453 39.202,74.674    "/></g><g><path d="M51.972,67.113c-0.142-0.486,0-0.414-0.515-0.268c0.266-0.553,0.014-0.255,0.513-0.671v0.375l0.339-0.195     C52.183,66.959,52.345,66.606,51.972,67.113z"/></g><g><path d="M52.479,65.501c0.471-0.258,0.406-0.099,0.512,0.272l-0.509,0.293L52.479,65.501z"/></g><g><path d="M51.124,68.34l-0.165-0.458l-0.01-0.743c0.632,0.146,0.008,0.345,1.023,0.537l0.34-0.195v-0.375l0.342-0.198     c0.041,0.017,0.072,0.008,0.095-0.007c0.011-0.005,0.019-0.011,0.026-0.017c0.005-0.005,0.01-0.009,0.016-0.011     c0.035-0.021,0.033,0.029,0.033,0.5l0.002,0.375c0.448,0.075,0.353-0.105,0.515,0.458l-0.718,0.118l-0.463,0.409l0.175-0.882     L51.124,68.34z M52.26,67.702c-0.149,0.085-0.08,0.023-0.231-0.016C52.18,67.726,52.11,67.787,52.26,67.702"/></g><g><path d="M55.534,60.161c-0.25-0.146-0.173-0.216-0.685,0.019v-0.378C55.637,59.572,55.457,59.459,55.534,60.161z"/></g><g><path d="M56.773,62.982c-0.551,0.206-0.414,0.28-0.515-0.27L56.773,62.982z"/></g><g><path d="M58.26,61.016c-0.062,0.038-0.066-0.093-0.167-0.45l0.679-0.394l0.003,0.754l-0.195-0.256     C58.391,60.863,58.309,60.988,58.26,61.016z"/></g><g><polygon points="64.236,59.875 64.231,60.599 63.561,60.757 63.558,60.465    "/></g></g><g><g><polygon points="5.034,61.687 4.695,61.491 4.693,61.866 5.033,62.062    "/></g><g><path d="M6.558,65.58c-0.58-0.183-0.399-0.128-0.683,0.171C6.565,65.971,6.389,65.997,6.558,65.58z"/></g><g><path d="M6.352,63.906c0.037,0.021,0.098,0.135,0.209,0.545l0.341,0.198c-0.045-0.494-0.056-0.6-0.071-0.607     c-0.006-0.002-0.011,0.006-0.021,0.015c-0.008,0.009-0.019,0.017-0.035,0.006c-0.037-0.021-0.098-0.135-0.212-0.55l-0.34-0.195     c0.046,0.496,0.058,0.602,0.073,0.609c0.005,0.004,0.011-0.005,0.02-0.015C6.325,63.903,6.336,63.896,6.352,63.906z"/></g><g><polygon points="7.415,63.813 7.382,63.383 7.042,63.562    "/></g><g><path d="M7.411,65.319c-0.139-0.611,0.047-0.242-0.338-0.76l-0.001,0.562L7.411,65.319z"/></g><g><path d="M12.177,68.826c0.482,0.134,0.249,0.183,0.511-0.083l-0.509-0.293L12.177,68.826z"/></g><g><path d="M15.244,70.22c-0.359-0.142-0.309,0.129-0.344,0.553l0.529,0.222l0.481,0.396l0.015-0.776     c-0.505-0.146-0.276-0.085-0.682-0.018L15.244,70.22z"/></g><g><polygon points="16.982,70.241 16.644,69.669 16.608,70.065    "/></g><g><polygon points="17.287,71.588 17.288,71.21 16.776,70.914 16.775,71.292    "/></g><g><polygon points="17.804,69.06 17.976,68.406 17.637,68.211 17.634,68.962    "/></g><g><path d="M18.309,71.611c0-0.255-0.188-0.39-0.341-0.574l-0.002,0.754C18.098,71.766,18.309,71.887,18.309,71.611z"/></g><g><path d="M18.487,68.702c-0.318-0.126-0.27,0.077-0.341,0.368C18.508,68.985,18.367,69.182,18.487,68.702z"/></g><g><path d="M20.361,69.972c-0.69-0.315-0.452-0.169-0.855,0.259l0.517,0.12l-0.006,0.551l0.17,0.098l0.001-0.563     C20.188,70.073,20.244,70.134,20.361,69.972z"/></g><g><polygon points="15.244,66.861 15.25,67.586 15.922,67.743 15.923,67.451    "/></g></g><g><g><path d="M78.415,28.647c0.018-0.011,0.103,0.065,0.517,0.2l-0.854,0.493l-0.664-0.385l0.428-0.246l0.444,0.257     C78.438,28.755,78.396,28.658,78.415,28.647z"/></g><g><polygon points="76.666,28.57 77.196,28.826 76.682,29.072    "/></g><g enable-background="new    "><g><path d="M77.247,30.588l0.658,0.384l-0.638,0.369C76.671,30.977,76.893,30.948,77.247,30.588z"/></g><g><path d="M78.34,30.977c0.774-0.253,0.268-0.207,1.086-0.114c-0.468,0.475-0.474,0.271,0.021,0.756      c-0.8,0.061-0.293,0.151-1.091-0.139l0.427-0.247L78.34,30.977z"/></g><g><path d="M79.176,29.729l0.425-0.246c-0.203-0.552-0.348-0.328,0.19-0.878l0.597,0.731l0.761,0.257l-1.116,0.378l1.327,1.051      l-0.414,0.484l-0.838,0.498c-0.237-0.811,0.391-0.235-0.041-1.51l-0.442-0.257l-0.428,0.246l-0.442-0.256      c-0.038-0.217-0.375-0.037,0.147-0.34C78.976,29.845,79.065,29.793,79.176,29.729z"/></g></g><g><path d="M83.055,31.819c-0.023,0.013-0.055,0.002-0.08-0.066c0.011-0.009,0.021-0.016,0.031-0.021     c0.054-0.032,0.077-0.016,0.082,0.011C83.093,31.769,83.077,31.806,83.055,31.819z"/></g><g><path d="M67.176,27.705l0.856-0.494L67.868,27.6c0.787,0.195,0.792,0.008,0.192,0.619L67.176,27.705z"/></g><g><path d="M69.265,32.381c-0.762-0.738-0.774-0.463-0.028-1.006c-0.005,0.376-0.137,0.335,0.455,0.76L69.265,32.381z"/></g><g><path d="M71.653,28.134c0.587,0.485,0.584,0.281,0.023,0.755L71.653,28.134z"/></g><g><path d="M73.892,27.153l0.854-0.493l1.104,0.641C74.896,27.612,74.863,27.634,73.892,27.153z"/></g><g><path d="M75.658,28.231l-0.869-0.011l1.093-0.395l0.373,0.502c-0.181,0.052-0.286,0.1-0.348,0.136     c-0.036,0.02-0.057,0.036-0.072,0.048c-0.013,0.011-0.018,0.018-0.021,0.02C75.805,28.538,75.838,28.46,75.658,28.231z"/></g><g><path d="M76.165,29.411c-1.191,0.334-0.093,0.026-1.557,0.139c-0.208-0.379-0.221-0.624-0.895-1.015l0.213-0.123L76.165,29.411z"/></g><g><polygon points="67.261,23.053 67.482,23.181 66.847,23.801 66.407,23.545    "/></g><g><path d="M67.709,23.56c0.136,0.467,0.272,0.177-0.198,0.626C67.166,23.908,67.429,23.83,67.709,23.56z"/></g><g><polygon points="64.779,21.913 64.445,22.106 63.342,21.722 64.17,21.257    "/></g><g><polygon points="69.359,20.563 70.021,20.947 69.594,21.193 68.933,20.81    "/></g><g><path d="M68.92,19.519l-0.877,0.526c-0.486-0.479-0.272-0.257-0.458-0.76l-0.427,0.246c-0.386-0.315-0.046-0.435,0.411-0.75     l0.592,0.453L68.92,19.519z"/></g><g><path d="M83.412,28.249l0.458,0.543c-0.231,0.053-0.379,0.084-0.471,0.103c-0.062,0.006-0.119,0.018-0.124,0.021     s0.028-0.001,0.124-0.021c0.144-0.014,0.309,0.006-0.119,0.253c-0.028,0.015-0.64,0.118-0.646,0.118l0.442,0.257l0.44,0.256     l-0.859,0.242c-0.293,0.046-0.375,0.064-0.398,0.078c-0.011,0.006-0.011,0.011-0.011,0.018c0-0.006,0-0.011,0.011-0.017     c0.023-0.014,0.105-0.032,0.398-0.079c0.101,0.343,0.398,0.279-0.203,0.626c-0.028,0.017-0.638,0.117-0.646,0.119l-0.635-0.648     l0.391-0.235l0.164-0.389l0.697,0.146l-0.354-0.343l-0.532-0.151l1.247-0.334L83.412,28.249z"/></g><g><path d="M81.866,32.779l-0.383,0.512l-0.7-0.4l0.862-0.24c-0.183-0.502,0.03-0.285-0.453-0.762     c1.091-0.084,0.37-0.249,1.53,0.396L81.866,32.779z"/></g><g><path d="M76.726,27.564l-0.664-0.385c0.798-0.062,0.293-0.15,1.091,0.139L76.726,27.564z"/></g><g><polygon points="72.971,25.383 72.358,24.761 72.736,24.252 73.382,24.364 73.012,24.894 73.618,24.996    "/></g><g><polygon points="68.3,21.48 67.434,21.472 67.857,21.172    "/></g><g><polygon points="82.378,27.881 82.817,28.137 82.391,28.383 81.951,28.127    "/></g><g><polygon points="81.841,27.371 82.37,27.63 81.858,27.875    "/></g><g><path d="M79.947,26.469l0.442,0.258l-0.64,0.369C79.405,26.814,79.667,26.739,79.947,26.469z"/></g><g><polygon points="75.386,26.291 74.94,26.034 75.37,25.786    "/></g><g><path d="M70.689,21.583c0.059,0.165,0.329,0.323,0.018,0.503c-0.288,0.167-0.565,0.043-0.869-0.011L70.689,21.583z"/></g><g><path d="M73.796,23.883c-0.589,0.34-0.682,0.196-1.301-0.016l1.285-0.488l-0.439-0.256l0.427-0.247     C74.141,23.242,74.444,23.508,73.796,23.883z"/></g><g><path d="M70.151,25.474c-0.797-0.572-0.478-0.399-0.249-1.134l0.466,0.505l0.622-0.366l0.221,0.128l-0.64,0.37     C70.159,25.215,70.26,25.236,70.151,25.474z"/></g><g><path d="M75.066,30.31c0.82-0.267,0.466-0.272,1.304,0.016l-0.641,0.369L75.066,30.31z"/></g><g><polygon points="81.231,25.729 81.674,26.037 80.804,26.025    "/></g><g><path d="M78.256,23.557c0.583,0.488,0.578,0.282,0.018,0.755L78.256,23.557z"/></g><g><polygon points="77.188,22.93 76,23.232 76.592,22.767 75.923,22.667 76.787,22.399    "/></g></g></g><text x="0" y="114.21" fill="#000000" font-size="5px" font-weight="bold" font-family="'Helvetica Neue', Helvetica, Arial-Unicode, Arial, Sans-serif">Created by Dayan Yari</text><text x="0" y="119.21" fill="#000000" font-size="5px" font-weight="bold" font-family="'Helvetica Neue', Helvetica, Arial-Unicode, Arial, Sans-serif">from the Noun Project</text></svg>